<svg xmlns="http://www.w3.org/2000/svg" viewBox="0 0 340 248"><line x1="10" y1="200" x2="330" y2="200" stroke="currentColor" stroke-width="2"/><path d="M14.5 200l-4.9 7M23.5 200l-4.9 7M32.5 200l-4.9 7M41.5 200l-4.9 7M50.5 200l-4.9 7M59.5 200l-4.9 7M68.5 200l-4.9 7M77.5 200l-4.9 7M86.5 200l-4.9 7M95.5 200l-4.9 7M104.5 200l-4.9 7M113.5 200l-4.9 7M122.5 200l-4.9 7M131.5 200l-4.9 7M140.5 200l-4.9 7M149.5 200l-4.9 7M158.5 200l-4.9 7M167.5 200l-4.9 7M176.5 200l-4.9 7M185.5 200l-4.9 7M194.5 200l-4.9 7M203.5 200l-4.9 7M212.5 200l-4.9 7M221.5 200l-4.9 7M230.5 200l-4.9 7M239.5 200l-4.9 7M248.5 200l-4.9 7M257.5 200l-4.9 7M266.5 200l-4.9 7M275.5 200l-4.9 7M284.5 200l-4.9 7M293.5 200l-4.9 7M302.5 200l-4.9 7M311.5 200l-4.9 7M320.5 200l-4.9 7M329.5 200l-4.9 7" fill="none" stroke="currentColor" stroke-width="1"/><rect x="30" y="80" width="110" height="10" fill="currentColor" fill-opacity="0.15" stroke="currentColor" stroke-width="2"/><line x1="45" y1="90" x2="45" y2="200" stroke="currentColor" stroke-width="2"/><line x1="125" y1="90" x2="125" y2="200" stroke="currentColor" stroke-width="2"/><line x1="40" y1="30" x2="40" y2="80" stroke="currentColor" stroke-width="2"/><line x1="40" y1="30" x2="134" y2="78" stroke="currentColor" stroke-width="2"/><circle cx="140" cy="74" r="6" fill="currentColor" fill-opacity="0.3" stroke="currentColor" stroke-width="2"/><line x1="146" y1="64" x2="174.8" y2="64" stroke="currentColor" stroke-width="2"/><polygon points="182,64 173,68.1 173,60" fill="currentColor" stroke="none"/><text x="196" y="64" fill="currentColor" font-size="14" font-family="sans-serif" font-style="italic" text-anchor="middle" dominant-baseline="central"><tspan>v</tspan><tspan dy="4" font-size="11">0</tspan></text><path d="M140 74Q215 74 262 196" fill="none" stroke="currentColor" stroke-width="1.5" stroke-dasharray="5 4"/><circle cx="262" cy="194" r="6" fill="currentColor" fill-opacity="0.3" stroke="currentColor" stroke-width="2"/><line x1="163" y1="80" x2="153" y2="80" stroke="currentColor" stroke-width="1"/><line x1="163" y1="200" x2="153" y2="200" stroke="currentColor" stroke-width="1"/><line x1="148" y1="85.6" x2="148" y2="194.4" stroke="currentColor" stroke-width="1"/><polygon points="148,200 144.9,193 151.2,193" fill="currentColor" stroke="none"/><polygon points="148,80 151.2,87 144.9,87" fill="currentColor" stroke="none"/><text x="160" y="140" fill="currentColor" font-size="14" font-family="sans-serif" font-style="italic" text-anchor="middle" dominant-baseline="central">h</text><line x1="262" y1="217" x2="262" y2="225" stroke="currentColor" stroke-width="1"/><line x1="140" y1="217" x2="140" y2="225" stroke="currentColor" stroke-width="1"/><line x1="256.4" y1="220" x2="145.6" y2="220" stroke="currentColor" stroke-width="1"/><polygon points="140,220 147,216.9 147,223.2" fill="currentColor" stroke="none"/><polygon points="262,220 255,223.2 255,216.9" fill="currentColor" stroke="none"/><text x="201" y="232" fill="currentColor" font-size="14" font-family="sans-serif" font-style="italic" text-anchor="middle" dominant-baseline="central">D</text></svg>
