<svg xmlns="http://www.w3.org/2000/svg" viewBox="0 0 374 282"><path d="M90 252V32M150 252V32M210 252V32M270 252V32M330 252V32M30 252H330M30 236.3H330M30 204.9H330M30 189.1H330M30 173.4H330M30 157.7H330M30 142H330M30 126.3H330M30 110.6H330M30 94.9H330M30 79.1H330M30 63.4H330M30 47.7H330M30 32H330" fill="none" stroke="currentColor" stroke-width="1" stroke-opacity="0.2"/><line x1="30" y1="220.6" x2="333.6" y2="220.6" stroke="currentColor" stroke-width="1.5"/><polygon points="340,220.6 332,224.2 332,217" fill="currentColor" stroke="none"/><line x1="30" y1="252" x2="30" y2="28.4" stroke="currentColor" stroke-width="1.5"/><polygon points="30,22 33.6,30 26.4,30" fill="currentColor" stroke="none"/><text x="90" y="235.6" fill="currentColor" font-size="12" font-family="sans-serif" text-anchor="middle" dominant-baseline="central">1</text><text x="150" y="235.6" fill="currentColor" font-size="12" font-family="sans-serif" text-anchor="middle" dominant-baseline="central">2</text><text x="210" y="235.6" fill="currentColor" font-size="12" font-family="sans-serif" text-anchor="middle" dominant-baseline="central">3</text><text x="270" y="235.6" fill="currentColor" font-size="12" font-family="sans-serif" text-anchor="middle" dominant-baseline="central">4</text><text x="330" y="235.6" fill="currentColor" font-size="12" font-family="sans-serif" text-anchor="middle" dominant-baseline="central">5</text><text x="22" y="252" fill="currentColor" font-size="12" font-family="sans-serif" text-anchor="end" dominant-baseline="central">−2</text><text x="22" y="189.1" fill="currentColor" font-size="12" font-family="sans-serif" text-anchor="end" dominant-baseline="central">2</text><text x="22" y="157.7" fill="currentColor" font-size="12" font-family="sans-serif" text-anchor="end" dominant-baseline="central">4</text><text x="22" y="126.3" fill="currentColor" font-size="12" font-family="sans-serif" text-anchor="end" dominant-baseline="central">6</text><text x="22" y="94.9" fill="currentColor" font-size="12" font-family="sans-serif" text-anchor="end" dominant-baseline="central">8</text><text x="22" y="63.4" fill="currentColor" font-size="12" font-family="sans-serif" text-anchor="end" dominant-baseline="central">10</text><text x="22" y="32" fill="currentColor" font-size="12" font-family="sans-serif" text-anchor="end" dominant-baseline="central">12</text><path d="M90 216.6V224.6M150 216.6V224.6M210 216.6V224.6M270 216.6V224.6M330 216.6V224.6M26 252H34M26 189.1H34M26 157.7H34M26 126.3H34M26 94.9H34M26 63.4H34M26 32H34" fill="none" stroke="currentColor" stroke-width="1.5"/><text x="23" y="233.6" fill="currentColor" font-size="12" font-family="sans-serif" text-anchor="end" dominant-baseline="central">0</text><text x="344" y="220.6" fill="currentColor" font-size="14" font-family="sans-serif" text-anchor="start" dominant-baseline="central">t (s)</text><text x="30" y="10" fill="currentColor" font-size="14" font-family="sans-serif" text-anchor="middle" dominant-baseline="central">v (m/s)</text><polyline points="30,32 48.3,73 65.8,108.1 83.3,139.1 98.3,162.5 113.3,183 128.3,200.5 142.5,214.3 155,224.3 166.7,231.8 178.3,237.6 189.2,241.3 200.8,243.6 212.5,244.1 223.3,243 235.8,239.8 247.5,234.9 259.2,228.3 272.5,218.6 286.7,205.7 300,191.1 312.5,175.4 329.2,151.2 330,149.9" fill="none" stroke="currentColor" stroke-width="2.25" stroke-linecap="round" stroke-linejoin="round"/></svg>
