<svg xmlns="http://www.w3.org/2000/svg" viewBox="0 0 294 302"><path d="M90 272V32M150 272V32M210 272V32M30 212H210M30 152H210M30 92H210M30 32H210" fill="none" stroke="currentColor" stroke-width="1" stroke-opacity="0.2"/><line x1="30" y1="272" x2="213.6" y2="272" stroke="currentColor" stroke-width="1.5"/><polygon points="220,272 212,275.6 212,268.4" fill="currentColor" stroke="none"/><line x1="30" y1="272" x2="30" y2="28.4" stroke="currentColor" stroke-width="1.5"/><polygon points="30,22 33.6,30 26.4,30" fill="currentColor" stroke="none"/><text x="90" y="287" fill="currentColor" font-size="12" font-family="sans-serif" text-anchor="middle" dominant-baseline="central">1</text><text x="150" y="287" fill="currentColor" font-size="12" font-family="sans-serif" text-anchor="middle" dominant-baseline="central">2</text><text x="210" y="287" fill="currentColor" font-size="12" font-family="sans-serif" text-anchor="middle" dominant-baseline="central">3</text><text x="22" y="212" fill="currentColor" font-size="12" font-family="sans-serif" text-anchor="end" dominant-baseline="central">1</text><text x="22" y="152" fill="currentColor" font-size="12" font-family="sans-serif" text-anchor="end" dominant-baseline="central">2</text><text x="22" y="92" fill="currentColor" font-size="12" font-family="sans-serif" text-anchor="end" dominant-baseline="central">3</text><text x="22" y="32" fill="currentColor" font-size="12" font-family="sans-serif" text-anchor="end" dominant-baseline="central">4</text><path d="M90 268V276M150 268V276M210 268V276M26 212H34M26 152H34M26 92H34M26 32H34" fill="none" stroke="currentColor" stroke-width="1.5"/><text x="23" y="285" fill="currentColor" font-size="12" font-family="sans-serif" text-anchor="end" dominant-baseline="central">0</text><text x="224" y="272" fill="currentColor" font-size="14" font-family="sans-serif" text-anchor="start" dominant-baseline="central">x (m)</text><text x="30" y="10" fill="currentColor" font-size="14" font-family="sans-serif" text-anchor="middle" dominant-baseline="central">y (m)</text><line x1="30" y1="269" x2="139.8" y2="269" stroke="currentColor" stroke-width="2.25"/><polygon points="147,269 138,273.1 138,265" fill="currentColor" stroke="none"/><line x1="150" y1="269" x2="150" y2="102.2" stroke="currentColor" stroke-width="2.25"/><polygon points="150,95 154.1,104 146,104" fill="currentColor" stroke="none"/><line x1="33" y1="272" x2="33" y2="102.2" stroke="currentColor" stroke-width="2.25" stroke-dasharray="6 4"/><polygon points="33,95 37.1,104 29,104" fill="currentColor" stroke="none"/><line x1="33" y1="92" x2="139.8" y2="92" stroke="currentColor" stroke-width="2.25" stroke-dasharray="6 4"/><polygon points="147,92 138,96.1 138,88" fill="currentColor" stroke="none"/><circle cx="150" cy="92" r="4" fill="currentColor" stroke="none"/><text x="158" y="182" fill="currentColor" font-size="14" font-family="sans-serif" text-anchor="start" dominant-baseline="central">path 1</text><text x="68" y="78" fill="currentColor" font-size="14" font-family="sans-serif" text-anchor="start" dominant-baseline="central">path 2</text><text x="158" y="80" fill="currentColor" font-size="14" font-family="sans-serif" text-anchor="start" dominant-baseline="central">(2, 3)</text></svg>
