<svg xmlns="http://www.w3.org/2000/svg" viewBox="0 0 320 240"><rect x="20" y="100" width="220" height="10" fill="currentColor" fill-opacity="0.12" stroke="currentColor" stroke-width="1.75"/><line x1="34" y1="110" x2="34" y2="220" stroke="currentColor" stroke-width="2"/><line x1="226" y1="110" x2="226" y2="220" stroke="currentColor" stroke-width="2"/><line x1="10" y1="220" x2="300" y2="220" stroke="currentColor" stroke-width="2"/><path d="M14.5 220l-4.9 7M23.5 220l-4.9 7M32.5 220l-4.9 7M41.5 220l-4.9 7M50.5 220l-4.9 7M59.5 220l-4.9 7M68.5 220l-4.9 7M77.5 220l-4.9 7M86.5 220l-4.9 7M95.5 220l-4.9 7M104.5 220l-4.9 7M113.5 220l-4.9 7M122.5 220l-4.9 7M131.5 220l-4.9 7M140.5 220l-4.9 7M149.5 220l-4.9 7M158.5 220l-4.9 7M167.5 220l-4.9 7M176.5 220l-4.9 7M185.5 220l-4.9 7M194.5 220l-4.9 7M203.5 220l-4.9 7M212.5 220l-4.9 7M221.5 220l-4.9 7M230.5 220l-4.9 7M239.5 220l-4.9 7M248.5 220l-4.9 7M257.5 220l-4.9 7M266.5 220l-4.9 7M275.5 220l-4.9 7M284.5 220l-4.9 7M293.5 220l-4.9 7" fill="none" stroke="currentColor" stroke-width="1"/><polygon points="70,100 130,100 130,60 70,60" fill="none" stroke="currentColor" stroke-width="2"/><text x="100" y="80" fill="currentColor" font-size="14" font-family="sans-serif" font-style="italic" text-anchor="middle" dominant-baseline="central">A</text><line x1="240" y1="104" x2="252" y2="98" stroke="currentColor" stroke-width="1.75"/><circle cx="254" cy="98" r="12" fill="none" stroke="currentColor" stroke-width="2"/><circle cx="254" cy="98" r="3" fill="currentColor" stroke="none"/><polyline points="130,86 254,86" fill="none" stroke="currentColor" stroke-width="1.5" stroke-linecap="round" stroke-linejoin="round"/><polyline points="266,98 266,158" fill="none" stroke="currentColor" stroke-width="1.5" stroke-linecap="round" stroke-linejoin="round"/><polygon points="248,194 284,194 284,158 248,158" fill="none" stroke="currentColor" stroke-width="2"/><text x="266" y="176" fill="currentColor" font-size="14" font-family="sans-serif" font-style="italic" text-anchor="middle" dominant-baseline="central">B</text></svg>
