<svg xmlns="http://www.w3.org/2000/svg" viewBox="0 0 314 322"><path d="M30 292V32M134 292V32M186 292V32M238 292V32M290 292V32M30 292H290M30 188H290M30 136H290M30 84H290M30 32H290" fill="none" stroke="currentColor" stroke-width="1" stroke-opacity="0.2"/><line x1="30" y1="240" x2="293.6" y2="240" stroke="currentColor" stroke-width="1.5"/><polygon points="300,240 292,243.6 292,236.4" fill="currentColor" stroke="none"/><line x1="82" y1="292" x2="82" y2="28.4" stroke="currentColor" stroke-width="1.5"/><polygon points="82,22 85.6,30 78.4,30" fill="currentColor" stroke="none"/><text x="30" y="255" fill="currentColor" font-size="12" font-family="sans-serif" text-anchor="middle" dominant-baseline="central">−1</text><text x="134" y="255" fill="currentColor" font-size="12" font-family="sans-serif" text-anchor="middle" dominant-baseline="central">1</text><text x="186" y="255" fill="currentColor" font-size="12" font-family="sans-serif" text-anchor="middle" dominant-baseline="central">2</text><text x="238" y="255" fill="currentColor" font-size="12" font-family="sans-serif" text-anchor="middle" dominant-baseline="central">3</text><text x="290" y="255" fill="currentColor" font-size="12" font-family="sans-serif" text-anchor="middle" dominant-baseline="central">4</text><text x="74" y="292" fill="currentColor" font-size="12" font-family="sans-serif" text-anchor="end" dominant-baseline="central">−1</text><text x="74" y="188" fill="currentColor" font-size="12" font-family="sans-serif" text-anchor="end" dominant-baseline="central">1</text><text x="74" y="136" fill="currentColor" font-size="12" font-family="sans-serif" text-anchor="end" dominant-baseline="central">2</text><text x="74" y="84" fill="currentColor" font-size="12" font-family="sans-serif" text-anchor="end" dominant-baseline="central">3</text><text x="74" y="32" fill="currentColor" font-size="12" font-family="sans-serif" text-anchor="end" dominant-baseline="central">4</text><path d="M30 236V244M134 236V244M186 236V244M238 236V244M290 236V244M78 292H86M78 188H86M78 136H86M78 84H86M78 32H86" fill="none" stroke="currentColor" stroke-width="1.5"/><text x="75" y="253" fill="currentColor" font-size="12" font-family="sans-serif" text-anchor="end" dominant-baseline="central">0</text><text x="304" y="240" fill="currentColor" font-size="14" font-family="sans-serif" font-style="italic" text-anchor="start" dominant-baseline="central">x</text><text x="82" y="10" fill="currentColor" font-size="14" font-family="sans-serif" font-style="italic" text-anchor="middle" dominant-baseline="central">y</text><line x1="30" y1="292" x2="290" y2="32" stroke="currentColor" stroke-width="1.25" stroke-dasharray="6 4" stroke-linecap="round"/><polyline points="82,292 97.2,260.4 107.3,235.5 116.7,207.3 126.1,172.3 134.7,132.4 142.7,88.1 151.1,32" fill="none" stroke="currentColor" stroke-width="2.25" stroke-linecap="round" stroke-linejoin="round"/><polyline points="30,240 58.2,226.4 79.8,217.3 102.9,209 134.7,199.7 168.7,191.6 211.3,183.2 261.8,175 290,170.9" fill="none" stroke="currentColor" stroke-width="1.75" stroke-linecap="round" stroke-linejoin="round"/><line x1="118.4" y1="214" x2="149.6" y2="58" stroke="currentColor" stroke-width="1.5" stroke-linecap="round"/><line x1="134" y1="198.4" x2="238" y2="177.6" stroke="currentColor" stroke-width="1.5" stroke-linecap="round"/><circle cx="134" cy="136" r="4" fill="currentColor" stroke="none"/><circle cx="186" cy="188" r="4" fill="currentColor" stroke="none"/><text x="126" y="130" fill="currentColor" font-size="14" font-family="sans-serif" text-anchor="end" dominant-baseline="central">(1, 2)</text><text x="192" y="202" fill="currentColor" font-size="14" font-family="sans-serif" text-anchor="start" dominant-baseline="central">(2, 1)</text><text x="153" y="42.8" fill="currentColor" font-size="14" font-family="sans-serif" text-anchor="start" dominant-baseline="central">y = f(x)</text><text x="238" y="154.8" fill="currentColor" font-size="14" font-family="sans-serif" text-anchor="start" dominant-baseline="central">y = g(x)</text><text x="274" y="66" fill="currentColor" font-size="14" font-family="sans-serif" text-anchor="start" dominant-baseline="central">y = x</text></svg>
