<svg xmlns="http://www.w3.org/2000/svg" viewBox="0 0 440 240"><line x1="230" y1="190" x2="386" y2="190" stroke="currentColor" stroke-width="2.25"/><polygon points="393.2,190 384.2,194.1 384.2,186" fill="currentColor" stroke="none"/><text x="311.6" y="208" fill="currentColor" font-size="14" font-family="sans-serif" font-style="italic" text-anchor="middle" dominant-baseline="central"><tspan>p</tspan><tspan dy="4" font-size="12">i</tspan></text><line x1="230" y1="190" x2="230" y2="74.8" stroke="currentColor" stroke-width="2.25"/><polygon points="230,67.6 234.1,76.6 226,76.6" fill="currentColor" stroke="none"/><text x="212" y="128.8" fill="currentColor" font-size="14" font-family="sans-serif" font-style="italic" text-anchor="end" dominant-baseline="central"><tspan>p</tspan><tspan dy="4" font-size="12">f</tspan></text><line x1="393.2" y1="190" x2="235.8" y2="71.9" stroke="currentColor" stroke-width="2.25" stroke-dasharray="6 4"/><polygon points="230,67.6 239.6,69.8 234.8,76.2" fill="currentColor" stroke="none"/><text x="329.6" y="116.8" fill="currentColor" font-size="14" font-family="sans-serif" text-anchor="start" dominant-baseline="central"><tspan>J = p</tspan><tspan dy="4" font-size="12">f</tspan><tspan dy="-4"> − p</tspan><tspan dy="4" font-size="12">i</tspan></text><line x1="40" y1="60" x2="84.4" y2="60" stroke="currentColor" stroke-width="1.25"/><polygon points="90,60 83,63.2 83,56.9" fill="currentColor" stroke="none"/><text x="100" y="60" fill="currentColor" font-size="12" font-family="sans-serif" text-anchor="start" dominant-baseline="central">E</text><line x1="40" y1="60" x2="40" y2="15.6" stroke="currentColor" stroke-width="1.25"/><polygon points="40,10 43.2,17 36.9,17" fill="currentColor" stroke="none"/><text x="52" y="14" fill="currentColor" font-size="12" font-family="sans-serif" text-anchor="start" dominant-baseline="central">N</text></svg>
