<svg xmlns="http://www.w3.org/2000/svg" viewBox="0 0 380 272"><path d="M62.9 242V32M90.1 242V32M117.4 242V32M144.7 242V32M172 242V32M199.2 242V32M226.5 242V32M253.8 242V32M281.1 242V32M308.3 242V32M335.6 242V32M35.6 242H335.6M35.6 222.9H335.6M35.6 203.8H335.6M35.6 184.7H335.6M35.6 146.5H335.6M35.6 127.5H335.6M35.6 108.4H335.6M35.6 89.3H335.6M35.6 70.2H335.6M35.6 51.1H335.6M35.6 32H335.6" fill="none" stroke="currentColor" stroke-width="1" stroke-opacity="0.2"/><line x1="35.6" y1="165.6" x2="339.2" y2="165.6" stroke="currentColor" stroke-width="1.5"/><polygon points="345.6,165.6 337.6,169.2 337.6,162" fill="currentColor" stroke="none"/><line x1="35.6" y1="242" x2="35.6" y2="28.4" stroke="currentColor" stroke-width="1.5"/><polygon points="35.6,22 39.2,30 32,30" fill="currentColor" stroke="none"/><text x="90.1" y="180.6" fill="currentColor" font-size="12" font-family="sans-serif" text-anchor="middle" dominant-baseline="central">0.2</text><text x="144.7" y="180.6" fill="currentColor" font-size="12" font-family="sans-serif" text-anchor="middle" dominant-baseline="central">0.4</text><text x="199.2" y="180.6" fill="currentColor" font-size="12" font-family="sans-serif" text-anchor="middle" dominant-baseline="central">0.6</text><text x="253.8" y="180.6" fill="currentColor" font-size="12" font-family="sans-serif" text-anchor="middle" dominant-baseline="central">0.8</text><text x="308.3" y="180.6" fill="currentColor" font-size="12" font-family="sans-serif" text-anchor="middle" dominant-baseline="central">1</text><text x="27.6" y="242" fill="currentColor" font-size="12" font-family="sans-serif" text-anchor="end" dominant-baseline="central">−16</text><text x="27.6" y="203.8" fill="currentColor" font-size="12" font-family="sans-serif" text-anchor="end" dominant-baseline="central">−8</text><text x="27.6" y="127.5" fill="currentColor" font-size="12" font-family="sans-serif" text-anchor="end" dominant-baseline="central">8</text><text x="27.6" y="89.3" fill="currentColor" font-size="12" font-family="sans-serif" text-anchor="end" dominant-baseline="central">16</text><text x="27.6" y="51.1" fill="currentColor" font-size="12" font-family="sans-serif" text-anchor="end" dominant-baseline="central">24</text><path d="M90.1 161.6V169.6M144.7 161.6V169.6M199.2 161.6V169.6M253.8 161.6V169.6M308.3 161.6V169.6M31.6 242H39.6M31.6 203.8H39.6M31.6 127.5H39.6M31.6 89.3H39.6M31.6 51.1H39.6" fill="none" stroke="currentColor" stroke-width="1.5"/><text x="28.6" y="178.6" fill="currentColor" font-size="12" font-family="sans-serif" text-anchor="end" dominant-baseline="central">0</text><text x="349.6" y="165.6" fill="currentColor" font-size="14" font-family="sans-serif" text-anchor="start" dominant-baseline="central">t (s)</text><text x="35.6" y="10" fill="currentColor" font-size="14" font-family="sans-serif" text-anchor="middle" dominant-baseline="central">F (N)</text><line x1="35.6" y1="165.6" x2="117.4" y2="51.1" stroke="currentColor" stroke-width="2.25" stroke-linecap="round"/><line x1="117.4" y1="51.1" x2="199.2" y2="165.6" stroke="currentColor" stroke-width="2.25" stroke-linecap="round"/><line x1="199.2" y1="165.6" x2="253.8" y2="222.9" stroke="currentColor" stroke-width="2.25" stroke-linecap="round"/><line x1="253.8" y1="222.9" x2="308.3" y2="165.6" stroke="currentColor" stroke-width="2.25" stroke-linecap="round"/></svg>
