<svg xmlns="http://www.w3.org/2000/svg" viewBox="0 0 332 286"><path d="M39 24V274M64 24V274M89 24V274M114 24V274M139 24V274M164 24V274M189 24V274M214 24V274M239 24V274M264 24V274M289 24V274M314 24V274M14 24H314M14 49H314M14 74H314M14 99H314M14 124H314M14 149H314M14 174H314M14 199H314M14 224H314M14 249H314" fill="none" stroke="currentColor" stroke-width="1" stroke-opacity="0.35"/><line x1="14" y1="274" x2="324" y2="274" stroke="currentColor" stroke-width="1.75"/><line x1="14" y1="274" x2="14" y2="14" stroke="currentColor" stroke-width="1.75"/></svg>
