<svg xmlns="http://www.w3.org/2000/svg" viewBox="0 0 374 262"><path d="M67.5 232V32M105 232V32M142.5 232V32M180 232V32M217.5 232V32M255 232V32M292.5 232V32M330 232V32M30 212H330M30 192H330M30 172H330M30 152H330M30 132H330M30 112H330M30 92H330M30 72H330M30 52H330M30 32H330" fill="none" stroke="currentColor" stroke-width="1" stroke-opacity="0.2"/><line x1="30" y1="232" x2="333.6" y2="232" stroke="currentColor" stroke-width="1.5"/><polygon points="340,232 332,235.6 332,228.4" fill="currentColor" stroke="none"/><line x1="30" y1="232" x2="30" y2="28.4" stroke="currentColor" stroke-width="1.5"/><polygon points="30,22 33.6,30 26.4,30" fill="currentColor" stroke="none"/><text x="67.5" y="247" fill="currentColor" font-size="12" font-family="sans-serif" text-anchor="middle" dominant-baseline="central">1</text><text x="105" y="247" fill="currentColor" font-size="12" font-family="sans-serif" text-anchor="middle" dominant-baseline="central">2</text><text x="142.5" y="247" fill="currentColor" font-size="12" font-family="sans-serif" text-anchor="middle" dominant-baseline="central">3</text><text x="180" y="247" fill="currentColor" font-size="12" font-family="sans-serif" text-anchor="middle" dominant-baseline="central">4</text><text x="217.5" y="247" fill="currentColor" font-size="12" font-family="sans-serif" text-anchor="middle" dominant-baseline="central">5</text><text x="255" y="247" fill="currentColor" font-size="12" font-family="sans-serif" text-anchor="middle" dominant-baseline="central">6</text><text x="292.5" y="247" fill="currentColor" font-size="12" font-family="sans-serif" text-anchor="middle" dominant-baseline="central">7</text><text x="330" y="247" fill="currentColor" font-size="12" font-family="sans-serif" text-anchor="middle" dominant-baseline="central">8</text><text x="22" y="192" fill="currentColor" font-size="12" font-family="sans-serif" text-anchor="end" dominant-baseline="central">2</text><text x="22" y="152" fill="currentColor" font-size="12" font-family="sans-serif" text-anchor="end" dominant-baseline="central">4</text><text x="22" y="112" fill="currentColor" font-size="12" font-family="sans-serif" text-anchor="end" dominant-baseline="central">6</text><text x="22" y="72" fill="currentColor" font-size="12" font-family="sans-serif" text-anchor="end" dominant-baseline="central">8</text><text x="22" y="32" fill="currentColor" font-size="12" font-family="sans-serif" text-anchor="end" dominant-baseline="central">10</text><path d="M67.5 228V236M105 228V236M142.5 228V236M180 228V236M217.5 228V236M255 228V236M292.5 228V236M330 228V236M26 192H34M26 152H34M26 112H34M26 72H34M26 32H34" fill="none" stroke="currentColor" stroke-width="1.5"/><text x="23" y="245" fill="currentColor" font-size="12" font-family="sans-serif" text-anchor="end" dominant-baseline="central">0</text><text x="344" y="232" fill="currentColor" font-size="14" font-family="sans-serif" text-anchor="start" dominant-baseline="central">t (s)</text><text x="30" y="10" fill="currentColor" font-size="14" font-family="sans-serif" text-anchor="middle" dominant-baseline="central">v (m/s)</text><line x1="30" y1="192" x2="142.5" y2="72" stroke="currentColor" stroke-width="2.25" stroke-linecap="round"/><line x1="142.5" y1="72" x2="255" y2="72" stroke="currentColor" stroke-width="2.25" stroke-linecap="round"/><line x1="255" y1="72" x2="330" y2="232" stroke="currentColor" stroke-width="2.25" stroke-linecap="round"/></svg>
