<svg xmlns="http://www.w3.org/2000/svg" viewBox="0 0 429 262"><path d="M71.9 232V32M101 232V32M130.1 232V32M159.2 232V32M188.3 232V32M217.3 232V32M246.4 232V32M275.5 232V32M304.6 232V32M333.7 232V32M362.8 232V32M42.8 232H362.8M42.8 218.7H362.8M42.8 205.3H362.8M42.8 192H362.8M42.8 178.7H362.8M42.8 152H362.8M42.8 138.7H362.8M42.8 125.3H362.8M42.8 112H362.8M42.8 98.7H362.8M42.8 85.3H362.8M42.8 72H362.8M42.8 58.7H362.8M42.8 45.3H362.8M42.8 32H362.8" fill="none" stroke="currentColor" stroke-width="1" stroke-opacity="0.2"/><line x1="42.8" y1="165.3" x2="366.4" y2="165.3" stroke="currentColor" stroke-width="1.5"/><polygon points="372.8,165.3 364.8,168.9 364.8,161.7" fill="currentColor" stroke="none"/><line x1="42.8" y1="232" x2="42.8" y2="28.4" stroke="currentColor" stroke-width="1.5"/><polygon points="42.8,22 46.4,30 39.2,30" fill="currentColor" stroke="none"/><text x="71.9" y="180.3" fill="currentColor" font-size="12" font-family="sans-serif" text-anchor="middle" dominant-baseline="central">1</text><text x="101" y="180.3" fill="currentColor" font-size="12" font-family="sans-serif" text-anchor="middle" dominant-baseline="central">2</text><text x="130.1" y="180.3" fill="currentColor" font-size="12" font-family="sans-serif" text-anchor="middle" dominant-baseline="central">3</text><text x="159.2" y="180.3" fill="currentColor" font-size="12" font-family="sans-serif" text-anchor="middle" dominant-baseline="central">4</text><text x="188.3" y="180.3" fill="currentColor" font-size="12" font-family="sans-serif" text-anchor="middle" dominant-baseline="central">5</text><text x="217.3" y="180.3" fill="currentColor" font-size="12" font-family="sans-serif" text-anchor="middle" dominant-baseline="central">6</text><text x="246.4" y="180.3" fill="currentColor" font-size="12" font-family="sans-serif" text-anchor="middle" dominant-baseline="central">7</text><text x="275.5" y="180.3" fill="currentColor" font-size="12" font-family="sans-serif" text-anchor="middle" dominant-baseline="central">8</text><text x="304.6" y="180.3" fill="currentColor" font-size="12" font-family="sans-serif" text-anchor="middle" dominant-baseline="central">9</text><text x="333.7" y="180.3" fill="currentColor" font-size="12" font-family="sans-serif" text-anchor="middle" dominant-baseline="central">10</text><text x="362.8" y="180.3" fill="currentColor" font-size="12" font-family="sans-serif" text-anchor="middle" dominant-baseline="central">11</text><text x="34.8" y="218.7" fill="currentColor" font-size="12" font-family="sans-serif" text-anchor="end" dominant-baseline="central">−0.8</text><text x="34.8" y="192" fill="currentColor" font-size="12" font-family="sans-serif" text-anchor="end" dominant-baseline="central">−0.4</text><text x="34.8" y="138.7" fill="currentColor" font-size="12" font-family="sans-serif" text-anchor="end" dominant-baseline="central">0.4</text><text x="34.8" y="112" fill="currentColor" font-size="12" font-family="sans-serif" text-anchor="end" dominant-baseline="central">0.8</text><text x="34.8" y="85.3" fill="currentColor" font-size="12" font-family="sans-serif" text-anchor="end" dominant-baseline="central">1.2</text><text x="34.8" y="58.7" fill="currentColor" font-size="12" font-family="sans-serif" text-anchor="end" dominant-baseline="central">1.6</text><text x="34.8" y="32" fill="currentColor" font-size="12" font-family="sans-serif" text-anchor="end" dominant-baseline="central">2</text><path d="M71.9 161.3V169.3M101 161.3V169.3M130.1 161.3V169.3M159.2 161.3V169.3M188.3 161.3V169.3M217.3 161.3V169.3M246.4 161.3V169.3M275.5 161.3V169.3M304.6 161.3V169.3M333.7 161.3V169.3M362.8 161.3V169.3M38.8 218.7H46.8M38.8 192H46.8M38.8 138.7H46.8M38.8 112H46.8M38.8 85.3H46.8M38.8 58.7H46.8M38.8 32H46.8" fill="none" stroke="currentColor" stroke-width="1.5"/><text x="35.8" y="178.3" fill="currentColor" font-size="12" font-family="sans-serif" text-anchor="end" dominant-baseline="central">0</text><text x="376.8" y="165.3" fill="currentColor" font-size="14" font-family="sans-serif" text-anchor="start" dominant-baseline="central">t (s)</text><text x="42.8" y="10" fill="currentColor" font-size="14" font-family="sans-serif" text-anchor="middle" dominant-baseline="central"><tspan>α (rad/s</tspan><tspan dy="-6" font-size="12">2</tspan><tspan dy="6">)</tspan></text><line x1="42.8" y1="72" x2="101" y2="72" stroke="currentColor" stroke-width="2.5" stroke-linecap="round"/><line x1="101" y1="138.7" x2="159.2" y2="138.7" stroke="currentColor" stroke-width="2.5" stroke-linecap="round"/><line x1="159.2" y1="205.3" x2="333.7" y2="205.3" stroke="currentColor" stroke-width="2.5" stroke-linecap="round"/><line x1="333.7" y1="165.3" x2="362.8" y2="165.3" stroke="currentColor" stroke-width="2.5" stroke-linecap="round"/><text x="79.9" y="60" fill="currentColor" font-size="12" font-family="sans-serif" text-anchor="start" dominant-baseline="central">1.4</text><text x="138.1" y="126.7" fill="currentColor" font-size="12" font-family="sans-serif" text-anchor="start" dominant-baseline="central">0.40</text><text x="254.4" y="219.3" fill="currentColor" font-size="12" font-family="sans-serif" text-anchor="start" dominant-baseline="central">−0.60</text></svg>
