<svg xmlns="http://www.w3.org/2000/svg" viewBox="0 0 464 262"><path d="M72.5 232V32M95 232V32M117.5 232V32M140 232V32M162.5 232V32M185 232V32M207.5 232V32M230 232V32M252.5 232V32M275 232V32M297.5 232V32M320 232V32M342.5 232V32M365 232V32M387.5 232V32M410 232V32M50 232H410M50 219.5H410M50 207H410M50 194.5H410M50 182H410M50 169.5H410M50 157H410M50 144.5H410M50 119.5H410M50 107H410M50 94.5H410M50 82H410M50 69.5H410M50 57H410M50 44.5H410M50 32H410" fill="none" stroke="currentColor" stroke-width="1" stroke-opacity="0.2"/><line x1="50" y1="132" x2="413.6" y2="132" stroke="currentColor" stroke-width="1.5"/><polygon points="420,132 412,135.6 412,128.4" fill="currentColor" stroke="none"/><line x1="50" y1="232" x2="50" y2="28.4" stroke="currentColor" stroke-width="1.5"/><polygon points="50,22 53.6,30 46.4,30" fill="currentColor" stroke="none"/><text x="95" y="147" fill="currentColor" font-size="12" font-family="sans-serif" text-anchor="middle" dominant-baseline="central">0.35</text><text x="140" y="147" fill="currentColor" font-size="12" font-family="sans-serif" text-anchor="middle" dominant-baseline="central">0.7</text><text x="185" y="147" fill="currentColor" font-size="12" font-family="sans-serif" text-anchor="middle" dominant-baseline="central">1.05</text><text x="230" y="147" fill="currentColor" font-size="12" font-family="sans-serif" text-anchor="middle" dominant-baseline="central">1.4</text><text x="275" y="147" fill="currentColor" font-size="12" font-family="sans-serif" text-anchor="middle" dominant-baseline="central">1.75</text><text x="320" y="147" fill="currentColor" font-size="12" font-family="sans-serif" text-anchor="middle" dominant-baseline="central">2.1</text><text x="365" y="147" fill="currentColor" font-size="12" font-family="sans-serif" text-anchor="middle" dominant-baseline="central">2.45</text><text x="410" y="147" fill="currentColor" font-size="12" font-family="sans-serif" text-anchor="middle" dominant-baseline="central">2.8</text><text x="42" y="232" fill="currentColor" font-size="12" font-family="sans-serif" text-anchor="end" dominant-baseline="central">−0.08</text><text x="42" y="207" fill="currentColor" font-size="12" font-family="sans-serif" text-anchor="end" dominant-baseline="central">−0.06</text><text x="42" y="182" fill="currentColor" font-size="12" font-family="sans-serif" text-anchor="end" dominant-baseline="central">−0.04</text><text x="42" y="157" fill="currentColor" font-size="12" font-family="sans-serif" text-anchor="end" dominant-baseline="central">−0.02</text><text x="42" y="107" fill="currentColor" font-size="12" font-family="sans-serif" text-anchor="end" dominant-baseline="central">0.02</text><text x="42" y="82" fill="currentColor" font-size="12" font-family="sans-serif" text-anchor="end" dominant-baseline="central">0.04</text><text x="42" y="57" fill="currentColor" font-size="12" font-family="sans-serif" text-anchor="end" dominant-baseline="central">0.06</text><text x="42" y="32" fill="currentColor" font-size="12" font-family="sans-serif" text-anchor="end" dominant-baseline="central">0.08</text><path d="M95 128V136M140 128V136M185 128V136M230 128V136M275 128V136M320 128V136M365 128V136M410 128V136M46 232H54M46 207H54M46 182H54M46 157H54M46 107H54M46 82H54M46 57H54M46 32H54" fill="none" stroke="currentColor" stroke-width="1.5"/><text x="43" y="145" fill="currentColor" font-size="12" font-family="sans-serif" text-anchor="end" dominant-baseline="central">0</text><text x="424" y="132" fill="currentColor" font-size="14" font-family="sans-serif" text-anchor="start" dominant-baseline="central">t (s)</text><text x="50" y="10" fill="currentColor" font-size="14" font-family="sans-serif" text-anchor="middle" dominant-baseline="central">x (m)</text><polyline points="50,132 64,96.8 73,78 80,67 86,60.7 90,58.1 94,57 98,57.4 102,59.2 107,63.5 113,71.3 120,83.8 130,106.3 140,132" fill="none" stroke="currentColor" stroke-width="2.25" stroke-linecap="round" stroke-linejoin="round"/><polyline points="140,132 154,167.2 163,186 170,197 176,203.3 180,205.9 184,207 188,206.6 192,204.8 197,200.5 203,192.7 210,180.2 220,157.7 230,132" fill="none" stroke="currentColor" stroke-width="2.25" stroke-linecap="round" stroke-linejoin="round"/><polyline points="230,132 244,96.8 253,78 260,67 266,60.7 270,58.1 274,57 278,57.4 282,59.2 287,63.5 293,71.3 300,83.8 310,106.3 320,132" fill="none" stroke="currentColor" stroke-width="2.25" stroke-linecap="round" stroke-linejoin="round"/><polyline points="320,132 334,167.2 343,186 350,197 356,203.3 360,205.9 364,207 368,206.6 372,204.8 377,200.5 383,192.7 390,180.2 400,157.7 410,132" fill="none" stroke="currentColor" stroke-width="2.25" stroke-linecap="round" stroke-linejoin="round"/></svg>
